# xmcd
#
# Track frame offsets: 
#        150
#        13311
#        29837
#        39937
#        50928
#        59795
#        76295
#        88288
#        102402
#        109571
#        121909
#        132129
#
# Disc length: 1909 seconds
#
# Revision: 0
# Processed by: cddbd v1.5.2PL0 Copyright (c) Steve Scherf et al.
# Submitted via: ExactAudioCopy v1.0b3
#
DISCID=ab07730c
DTITLE=Highwaymen - Highwaymen {5-CD Box} [CD 3: Burning Memories)
DYEAR=2008
DGENRE=Country
TTITLE0=Kris Kristofferson - Jesse Younger
TTITLE1=Johnny Cash - City Of New Orleans
TTITLE2=Willie Nelson - I Didn't Sleep A Wink
TTITLE3=Waylon Jennings - Dream Baby (How Long Must I Dream?)
TTITLE4=Johnny Cash - I Got Stripes
TTITLE5=Willie Nelson - Georgia On My Mind
TTITLE6=Waylon Jennings - Burning Memories
TTITLE7=Willie Nelson - Blue Eyes Crying In The Rain
TTITLE8=Waylon Jennings - It's So Easy
TTITLE9=Johnny Cash - Sixteen Tons
TTITLE10=Willie Nelson - Broken Promises
TTITLE11=Waylon Jennings - Sally Was A Good Ol' Girl
EXTD=
EXTT0=
EXTT1=
EXTT2=
EXTT3=
EXTT4=
EXTT5=
EXTT6=
EXTT7=
EXTT8=
EXTT9=
EXTT10=
EXTT11=
PLAYORDER=
